PathFileType	4	(X/Y/Z)	Patient4_TMGait_0pt2_01_left_09.trc.trc
DataRate	CameraRate	NumFrames	NumMarkers	Units	OrigDataRate	OrigDataStartFrame	OrigNumFrames
42.296072507553	42.296072507553	4	33	mm	42.296072507553	18	       141
Frame#	Time	Sacral			L.Shoulder			Chest			R.Shoulder			Neck			R.ASIS			L.ASIS			R.Thigh.Superior			R.Thigh.Lateral			R.Thigh.Inferior			R.Patella			L.Thigh.Superior			L.Thigh.Lateral			L.Thigh.Inferior			L.Patella			L.Shank.Superior			L.Shank.Lateral			L.Shank.Inferior			R.Shank.Superior			R.Shank.Lateral			R.Shank.Inferior			R.Heel			R.Midfoot.Superior			R.Midfoot.Lateral			R.Toe			L.Heel			L.Midfoot.Lateral			L.Midfoot.Superior			L.Toe			L.Elbow			L.Wrist			R.Elbow			R.Wrist			
		X1	Y1	Z1	X2	Y2	Z2	X3	Y3	Z3	X4	Y4	Z4	X5	Y5	Z5	X6	Y6	Z6	X7	Y7	Z7	X8	Y8	Z8	X9	Y9	Z9	X10	Y10	Z10	X11	Y11	Z11	X12	Y12	Z12	X13	Y13	Z13	X14	Y14	Z14	X15	Y15	Z15	X16	Y16	Z16	X17	Y17	Z17	X18	Y18	Z18	X19	Y19	Z19	X20	Y20	Z20	X21	Y21	Z21	X22	Y22	Z22	X23	Y23	Z23	X24	Y24	Z24	X25	Y25	Z25	X26	Y26	Z26	X27	Y27	Z27	X28	Y28	Z28	X29	Y29	Z29	X30	Y30	Z30	X31	Y31	Z31	X32	Y32	Z32	X33	Y33	Z33	

18	20.261928571429	808.594523989255	999.858572923045	631.814462071153	923.427474896036	1421.804354147501	400.198436404591	1073.653156010315	1352.127207575661	518.093661794781	1056.243877414199	1428.909915689204	708.164207700805	961.317641859077	1484.902068423416	551.708948494269	1058.883241455382	926.340385728495	678.238151659914	970.996661890859	956.860456518363	418.517576049231	1075.696474610255	723.188643263161	626.753890559490	1004.860183965516	610.266215246581	694.711811257133	1055.424277245249	563.009932221002	593.838050471889	1050.491687025378	468.530389837899	595.563792289908	1056.246136796294	771.984946853267	435.410926147337	998.466997829395	646.231429753967	360.258810005315	1104.130892596490	584.608448065745	412.032730225612	1126.236075087826	513.577975849616	401.977732116987	1097.832272133685	440.546377757787	387.174580409098	1007.563274787566	328.347408497834	330.024091886619	1078.282946959894	210.928042131835	371.914152402797	1003.056196297074	384.512369142476	604.678648772486	924.009274811607	290.730669871780	672.957776671475	933.931045948861	196.089910136343	600.553490040119	770.209145940747	45.574384787121	582.602493126982	945.367139750080	96.260615670986	605.183254745532	858.696365622532	37.413677760668	650.335304809303	1065.682649173121	40.815547138019	624.358832141906	964.547700792711	45.183723629093	401.870058740496	1035.287988954976	44.965976124038	318.774814679458	1119.043868724266	109.454258668715	340.568076687166	1245.460935275180	62.207743877262	304.615193356143	758.643467616553	1103.189651137646	354.007672127955	704.830879763734	855.010978635471	419.721903257293	1268.528486681707	1160.140600124865	794.699199269716	1513.318625192085	1192.797819036946	717.381799039181	
19	20.285571428571	808.790804346511	1001.387123763982	630.160332763889	923.216955245796	1422.948845478884	398.393745859889	1074.074860847020	1352.762369708235	515.242255533501	1058.165296793427	1429.746583286747	705.267618446635	962.112694805988	1485.872255293922	549.614106682541	1058.828003634381	926.733220449755	675.896839986877	970.361442423257	958.012558128710	416.332342095635	1072.839667284769	722.935957353953	625.436215728947	1000.698011012380	611.070379781710	694.260317300622	1050.552705036887	562.775986138309	593.789753893452	1044.441413670884	468.895106824136	595.923173379512	1053.400012321932	770.867028736254	432.325636496551	992.589868697220	645.647444992746	358.248179045683	1097.965125720193	583.292619219961	409.123195331511	1119.072172630170	513.774033174389	400.535957729622	1094.091102075735	441.049762228165	385.457073660337	1009.217420091983	325.059733952514	326.587859785574	1084.070175010125	210.335494657824	369.615007836647	997.462798858531	385.043049308793	605.006118735347	918.562524316272	291.110070262764	673.220244894953	928.857913627980	196.438359267873	600.740282383676	765.437927934471	45.631576369705	582.628480695793	940.602326452421	96.240496452708	605.213837913679	853.926571752427	37.409587822469	650.324462512418	1060.910174928046	40.735781420881	624.393939386442	975.694754032206	41.217577749607	397.490030314630	1048.348937721989	42.062776408207	315.923388641795	1129.890266115797	109.061612962060	339.105395224596	1258.500941280999	64.849861533880	306.467751395197	756.136746433688	1105.750331195432	354.130407395156	700.388918415478	858.465556299392	421.627538616278	1275.417756259747	1166.113409029965	788.926607166935	1516.974135652787	1210.432367661259	707.814269013219	
20	20.309214285714	809.033148203797	1002.573410783187	628.115019794539	923.257444855053	1423.654985448006	396.077791820289	1074.596045130589	1353.085668010590	512.134365813558	1059.870867950099	1430.282987540249	702.079606275574	962.927857117865	1486.508859478137	547.072061990323	1058.839168104738	926.938214895380	673.476553028113	970.012701060777	958.682936396076	413.975125626451	1070.278971012951	722.566463852399	623.965725323772	996.906177657514	611.703330693684	693.574432527843	1046.058552252263	562.429660347446	593.490204878427	1038.817733838651	469.090829010571	595.995709145831	1051.122881369048	769.563252565180	429.254429937797	987.390009073611	644.788477921669	356.376694701292	1092.555419021937	581.800975400591	406.328741402926	1112.366395619777	513.471384161976	399.190119626327	1090.306964042865	441.083751459079	383.887651481907	1009.821447315713	322.323068927427	323.865958045998	1087.765124378728	209.935922980122	367.960105932625	992.205969302458	385.404818456722	605.106499474486	913.390078177047	291.426353647213	673.338008851807	923.909973123784	196.695141698545	600.832956944837	760.660019974135	45.685355573684	582.668893760907	935.841157880918	96.222907992602	605.242123536965	849.154793029113	37.412560293931	650.330438184703	1056.133898085102	40.663866670601	624.423142655624	983.554724071946	38.849249929283	394.349635513043	1057.699791297480	40.254568156535	314.078387187343	1137.545012054329	108.813493512384	338.374226051035	1267.528872616882	66.573818282980	308.578936812031	754.573484381437	1107.475504933045	353.250451915964	697.350180415103	860.814620900526	421.935070131374	1281.379930846824	1171.295033311699	783.175144068707	1519.553417462529	1225.555911216924	698.712821038876	
21	20.332857142857	809.326775279136	1003.454412255049	625.673224995560	923.572393741125	1423.957447370326	393.237144848629	1075.244503752295	1353.123482179194	508.755817746274	1061.391860855731	1430.553321172633	698.591781263497	963.785861563281	1486.843179240902	544.068193086123	1058.910644029951	926.978795125627	670.964176790200	969.958031787613	958.909658840119	411.437337757814	1068.052182301984	722.089343573229	622.352786841010	993.502749077974	612.174302530854	692.642231762346	1041.994272275433	561.979550863372	592.937978248568	1033.681077759996	469.116793306376	595.779762059592	1049.440945108366	768.135246384182	426.272416564117	983.014465268085	643.726794982071	354.643431452962	1087.978562094004	580.187467479790	403.754084200917	1106.283066679297	512.731958873618	397.965845547662	1086.612976957914	440.667975293910	382.482506359473	1009.461834420925	320.029233575765	321.814386963109	1089.524549239890	209.535315240789	366.895871081062	987.328740944481	385.606124419024	604.973476134274	908.517763071213	291.699079205494	673.302547316649	919.108375833424	196.872088734716	600.830451609486	755.882368834555	45.764785767675	582.723112802989	931.095641019469	96.216281304509	605.273288716816	844.387504391198	37.437935005216	650.351324789411	1051.358870375897	40.591023637805	624.449385665009	988.235473923415	37.653833440454	392.322155161141	1063.503529154234	39.194870314454	313.100515709490	1142.196200203116	108.485378323513	338.290336034796	1272.897937816502	67.241657337573	310.819919330871	753.896892162657	1108.429329559933	351.348069519047	695.597580638606	862.143196187569	420.660067781423	1286.454191626240	1175.657307052464	777.490483139511	1521.303292572204	1238.173055139436	690.090389214418	
